<svg xmlns="http://www.w3.org/2000/svg" viewBox="596.00 938.00 244.00 314.00" fill="none"><defs><filter id="filter10_d_4311_2" x="551.795" y="897.421" width="332.411" height="402.312" filterUnits="userSpaceOnUse" color-interpolation-filters="sRGB">
<feFlood flood-opacity="0" result="BackgroundImageFix"/>
<feColorMatrix in="SourceAlpha" type="matrix" values="0 0 0 0 0 0 0 0 0 0 0 0 0 0 0 0 0 0 127 0" result="hardAlpha"/>
<feOffset dy="12"/>
<feGaussianBlur stdDeviation="28"/>
<feColorMatrix type="matrix" values="0 0 0 0 0.0392157 0 0 0 0 0.117647 0 0 0 0 0.313726 0 0 0 0.48 0"/>
<feBlend mode="normal" in2="BackgroundImageFix" result="effect1_dropShadow_4311_2"/>
<feBlend mode="normal" in="SourceGraphic" in2="effect1_dropShadow_4311_2" result="shape"/>
</filter><clipPath id="clip10_4311_2">
<rect width="220" height="290" fill="white" transform="translate(608.206 941.421) rotate(0.0812947)"/>
</clipPath></defs><g id="Container:transform_5">
<g id="Container_10">
<g id="GozarutchiCharacter" filter="url(#filter10_d_4311_2)">
<g clip-path="url(#clip10_4311_2)">
<path id="Vector_327" d="M717.795 1231.58C745.702 1231.62 768.329 1228.7 768.334 1225.06C768.34 1221.42 745.721 1218.44 717.813 1218.4C689.906 1218.36 667.279 1221.27 667.274 1224.91C667.269 1228.55 689.888 1231.54 717.795 1231.58Z" fill="#0A1E50" fill-opacity="0.2"/>
<path id="Vector_328" d="M713.455 1193.12C713.461 1188.88 710.023 1185.43 705.776 1185.42C701.53 1185.42 698.082 1188.86 698.076 1193.1L698.051 1210.68C698.045 1214.92 701.483 1218.37 705.73 1218.38C709.976 1218.38 713.424 1214.95 713.43 1210.7L713.455 1193.12Z" fill="#1A4878"/>
<path id="Vector_329" d="M737.622 1193.16C737.628 1188.91 734.19 1185.46 729.943 1185.46C725.697 1185.45 722.249 1188.89 722.243 1193.14L722.218 1210.71C722.212 1214.96 725.65 1218.41 729.897 1218.41C734.143 1218.42 737.591 1214.98 737.597 1210.73L737.622 1193.16Z" fill="#1A4878"/>
<path id="Vector_330" d="M686.768 1184.07C700.078 1178.16 708.076 1167.08 704.633 1159.32C701.189 1151.56 687.608 1150.05 674.298 1155.95C660.988 1161.85 652.99 1172.93 656.433 1180.7C659.877 1188.46 673.458 1189.97 686.768 1184.07Z" fill="#1A4878"/>
<path id="Vector_331" d="M748.956 1184.16C762.249 1190.1 775.834 1188.63 779.3 1180.87C782.765 1173.12 774.799 1162.02 761.506 1156.07C748.213 1150.13 734.627 1151.6 731.161 1159.36C727.696 1167.11 735.663 1178.21 748.956 1184.16Z" fill="#1A4878"/>
<path id="Vector_332" d="M717.86 1185.44C734.847 1185.46 748.633 1174.66 748.652 1161.32C748.671 1147.97 734.915 1137.13 717.928 1137.11C700.942 1137.08 687.156 1147.88 687.137 1161.23C687.118 1174.58 700.873 1185.42 717.86 1185.44Z" fill="#1A4878"/>
<path id="Vector_333" d="M757.677 994.361L678.586 994.248C650.679 994.209 628.024 1016.8 627.984 1044.71L627.912 1095.24C627.873 1123.14 650.464 1145.8 678.371 1145.84L757.462 1145.95C785.369 1145.99 808.024 1123.4 808.064 1095.49L808.135 1044.96C808.175 1017.06 785.584 994.4 757.677 994.361Z" fill="#1A4878"/>
<path id="Vector_334" d="M708.243 995.389L718.172 965.744L728.016 995.417L708.243 995.389Z" fill="#1A4878"/>
<path id="Vector_335" opacity="0.055" d="M678.518 1041.48C695.505 1041.51 709.286 1034.15 709.299 1025.05C709.312 1015.95 695.552 1008.55 678.565 1008.53C661.578 1008.5 647.797 1015.86 647.784 1024.96C647.771 1034.06 661.531 1041.46 678.518 1041.48Z" fill="white"/>
<path id="Vector_336" d="M791.642 1055.92L644.446 1055.72C637.772 1055.71 632.355 1061.11 632.345 1067.78L632.32 1085.36C632.311 1092.03 637.713 1097.45 644.386 1097.46L791.583 1097.67C798.257 1097.68 803.674 1092.27 803.684 1085.6L803.709 1068.02C803.718 1061.35 798.316 1055.93 791.642 1055.92Z" fill="#FEFFD4"/>
<path id="Vector_337" opacity="0.18" d="M791.642 1055.92L644.446 1055.72C637.772 1055.71 632.358 1058.65 632.353 1062.29C632.348 1065.93 637.753 1068.89 644.427 1068.9L791.624 1069.11C798.297 1069.12 803.711 1066.17 803.716 1062.53C803.722 1058.89 798.316 1055.93 791.642 1055.92Z" fill="white"/>
<path id="Vector_338" d="M683.942 1089.82C694.862 1089.84 703.723 1083.95 703.734 1076.67C703.744 1069.39 694.9 1063.48 683.98 1063.46C673.06 1063.45 664.199 1069.33 664.188 1076.61C664.178 1083.89 673.022 1089.81 683.942 1089.82Z" fill="#1A4878"/>
<path id="Vector_339" d="M752.049 1089.92C762.969 1089.94 771.83 1084.05 771.84 1076.77C771.851 1069.49 763.006 1063.57 752.086 1063.56C741.166 1063.54 732.305 1069.43 732.295 1076.71C732.284 1083.99 741.129 1089.91 752.049 1089.92Z" fill="#1A4878"/>
<path id="Vector_340" opacity="0.72" d="M710.218 1152.48L717.893 1162.37M717.893 1162.37L725.597 1152.5M717.893 1162.37L717.874 1175.55" stroke="white" stroke-width="3.29545" stroke-linecap="round"/>
</g>
</g>
</g>
</g></svg>